<?xml version="1.0" encoding="UTF-8" standalone="yes"?>

<svg
   version="1.1"
   width="682"
   height="270"
   xmlns="http://www.w3.org/2000/svg"
   xmlns:svg="http://www.w3.org/2000/svg">
  />
  <path
     style="display:inline;fill:#ffffff;fill-opacity:1;stroke:#000000;stroke-width:1.49808;stroke-dasharray:none;stroke-opacity:1"
     d="m 564.98047,0.77148438 c 3.16141,0.0317 4.96875,0.0878906 4.96875,0.0878906 0,0 111.65413,-1.0600723 111.30078,29.99218702 -0.2975,26.145611 -68.6599,31.218372 -90.4375,32.1875 l 1.96289,20.019532 c 7.77345,-0.08821 11.48438,6.792968 11.48438,6.792968 0,0 0.002,10.145785 0.0898,17.203128 0.0883,7.05733 -9.54155,20.81805 -30.03516,20.90625 -20.4936,0.0882 -22.03711,-13.4336 -22.03711,-13.4336 L 428.35352,128.75 l -7.9961,14.47266 c 0,0 80.15355,79.92429 83.9961,84.29101 3.84255,4.36672 2.91406,8.33594 2.91406,8.33594 -0.35334,29.99366 -36.81577,33.75122 -45.37305,33.37695 -8.55729,-0.37427 -6.39062,-8.5 -6.39062,-8.5 l 24.02734,-22.23047 -78.26367,-74.98437 c 0,0 -18.72852,15.88086 -57.5957,15.88086 -0.92361,0 -1.77342,-0.0507 -2.67188,-0.0684 -0.89846,0.0177 -1.74826,0.0684 -2.67188,0.0684 -38.86718,0 -57.5957,-15.88086 -57.5957,-15.88086 l -78.26367,74.98437 24.02734,22.23047 c 0,0 2.16667,8.12573 -6.39062,8.5 -8.55728,0.37427 -45.01971,-3.38329 -45.37305,-33.37695 0,0 -0.92849,-3.96922 2.91406,-8.33594 3.84255,-4.36672 83.9961,-84.29101 83.9961,-84.29101 L 253.64648,128.75 129.72266,114.52734 c 0,0 -1.54351,13.52182 -22.03711,13.4336 -20.49361,-0.0882 -30.1235,-13.84892 -30.03516,-20.90625 0.0883,-7.057338 0.0898,-17.203127 0.0898,-17.203128 0,0 3.71093,-6.881187 11.48438,-6.792968 L 91.1875,63.039062 C 69.4099,62.069934 1.0475,56.997173 0.75,30.851562 0.39665,-0.2006972 112.05078,0.859375 112.05078,0.859375 c 0,0 1.80734,-0.0561523 4.96875,-0.0878906 22.12987,-0.22192806 110.70726,0.7032933 111.63477,29.7265626 1.06001,33.169459 -93.98828,32.816406 -93.98828,32.816406 h -8.25782 l 1.24219,17.978516 142.30469,0.53125 c 0,0 12.89772,-45.697922 67.8418,-45.521485 1.12094,0.0036 2.11721,0.133829 3.20312,0.173828 1.08591,-0.04 2.08218,-0.169828 3.20312,-0.173828 54.94408,-0.17643 67.8418,45.521485 67.8418,45.521485 l 142.30469,-0.53125 1.24219,-17.978516 h -8.25782 c 0,0 -95.04829,0.353054 -93.98828,-32.816406 C 454.27321,1.4747771 542.8506,0.54955438 564.98047,0.77148438 Z M 563.58789,19.560547 c 0,0 -86.21307,2.118432 -86.56641,12.351562 -0.35334,10.23313 71.37305,13.054688 71.37305,13.054688 l 8.45117,0.177734 0.50782,-7.339843 c 0,0 -0.17694,-7.76499 15.98828,-7.41211 16.1652,0.35286 14.92968,7.939453 14.92968,7.939453 l 0.70508,5.998047 0.10352,1.052734 c 16.29325,-0.637834 66.67381,-3.379768 66.375,-13.824218 -0.35334,-12.35032 -91.86719,-11.998047 -91.86719,-11.998047 z m -445.17578,0 c 0,0 -91.51385,-0.352274 -91.86719,11.998047 -0.29881,10.444451 50.08175,13.186385 66.375,13.824218 l 0.10352,-1.052734 0.70508,-5.998047 c 0,0 -1.23553,-7.586591 14.92968,-7.939453 16.16522,-0.352874 15.98828,7.41211 15.98828,7.41211 l 0.50782,7.339843 8.45117,-0.177734 c 0,0 71.72639,-2.821556 71.37305,-13.054688 C 204.62518,21.678977 118.41211,19.560547 118.41211,19.560547 Z M 341,120.46094 c -0.91042,0.0259 -4.15234,0.0547 -4.15234,0.0547 -9.24436,0 -46.97259,-0.49859 -46.84766,5.24024 0.12492,5.73883 46.47266,4.86523 46.47266,4.86523 0,0 2.67341,0.0504 4.52734,0.0898 1.85393,-0.0394 4.52734,-0.0898 4.52734,-0.0898 0,0 46.34774,0.8736 46.47266,-4.86523 0.12493,-5.73883 -37.6033,-5.24024 -46.84766,-5.24024 0,0 -3.24192,-0.0288 -4.15234,-0.0547 z" />
</svg>
